<?xml version="1.0" standalone="no"?>
<!DOCTYPE svg PUBLIC "-//W3C//DTD SVG 20010904//EN"
 "http://www.w3.org/TR/2001/REC-SVG-20010904/DTD/svg10.dtd">
<svg version="1.0" xmlns="http://www.w3.org/2000/svg"
 width="2768.000000pt" height="2768.000000pt" viewBox="0 0 2768.000000 2768.000000"
 preserveAspectRatio="xMidYMid meet">
<metadata>
Created by potrace 1.14, written by Peter Selinger 2001-2017
</metadata>
<g transform="translate(0.000000,2768.000000) scale(0.100000,-0.100000)"
fill="#000000" stroke="none">
<path d="M6 16403 c-3 -3 -6 -951 -6 -2105 l0 -2098 103 -1 c115 -1 170 1 176
7 2 2 4 141 4 309 0 168 1 305 2 305 2 0 22 -26 45 -57 24 -32 48 -62 54 -68
6 -5 23 -27 39 -47 34 -46 159 -171 217 -218 59 -48 180 -131 180 -124 0 3 12
-3 27 -14 61 -41 236 -109 332 -127 9 -2 16 -4 16 -5 0 -1 14 -3 30 -5 17 -2
59 -8 95 -13 54 -8 325 -9 325 -2 0 2 11 4 25 5 99 9 358 85 368 108 2 4 9 7
16 7 21 0 149 73 236 134 76 54 231 199 285 266 60 74 122 171 168 262 60 116
126 307 143 408 2 14 6 34 9 46 18 83 26 409 12 504 -4 25 -9 64 -12 88 -3 24
-17 85 -31 135 -30 110 -29 107 -39 132 -4 11 -19 49 -33 85 -13 36 -30 71
-35 79 -6 7 -12 19 -13 26 -3 18 -81 140 -140 220 -64 85 -119 142 -204 215
-36 30 -67 57 -70 60 -15 16 -135 90 -208 128 -118 61 -267 114 -362 128 -19
3 -40 7 -47 9 -23 8 -158 18 -228 18 -101 -1 -227 -14 -277 -29 -10 -3 -30 -7
-45 -10 -46 -8 -163 -52 -243 -91 -214 -103 -400 -264 -560 -483 -22 -30 -48
-66 -58 -79 -19 -23 -19 -4 -20 915 0 517 -1 946 -1 955 -1 14 -18 16 -125 17
-69 0 -129 2 -134 6 -5 3 -12 3 -16 -1z m1569 -1477 c71 -6 101 -12 175 -32
73 -20 71 -19 103 -32 16 -7 31 -12 33 -12 3 0 37 -16 75 -35 222 -111 395
-286 508 -511 39 -78 95 -234 104 -291 3 -15 7 -35 10 -43 3 -8 8 -37 12 -65
3 -27 8 -63 10 -80 5 -31 5 -275 1 -335 -3 -33 -13 -102 -23 -145 -2 -11 -6
-31 -9 -45 -3 -14 -8 -34 -11 -45 -4 -11 -8 -22 -8 -25 -13 -50 -19 -67 -28
-77 -5 -7 -6 -13 -2 -13 4 0 2 -7 -5 -15 -7 -8 -10 -15 -7 -15 18 0 -117 -236
-175 -306 -43 -53 -182 -184 -194 -184 -7 0 -14 -3 -16 -8 -4 -9 -86 -60 -143
-90 -76 -39 -193 -80 -280 -97 -98 -20 -311 -26 -400 -12 -77 12 -110 19 -127
28 -10 5 -18 7 -18 5 0 -18 -299 115 -308 136 -2 4 -8 8 -13 8 -9 0 -32 15
-93 60 -26 19 -195 188 -220 219 -91 116 -197 337 -221 460 -2 12 -6 30 -9 39
-33 108 -40 418 -12 538 2 12 7 37 10 57 16 99 102 305 170 406 20 29 36 55
36 58 0 2 6 10 13 17 6 7 28 33 47 56 46 56 126 136 170 169 19 14 41 31 47
38 7 6 37 25 65 43 29 17 60 35 68 40 88 56 296 122 430 136 36 3 66 7 67 8 3
2 98 -2 168 -8z"/>
<path d="M26856 16402 c-2 -4 -36 -6 -75 -5 l-71 2 0 -756 0 -756 -82 81 c-95
93 -135 126 -233 191 -80 53 -195 116 -195 105 0 -3 -6 -2 -13 4 -15 13 -153
50 -222 60 -61 8 -387 7 -435 -2 -19 -4 -57 -12 -85 -18 -27 -7 -52 -13 -55
-13 -141 -32 -333 -127 -475 -235 -74 -56 -226 -223 -290 -319 -91 -135 -206
-400 -230 -529 -3 -15 -7 -38 -10 -52 -18 -88 -20 -103 -31 -220 -12 -133 -6
-410 10 -486 2 -12 7 -45 11 -74 11 -91 77 -318 108 -375 6 -11 12 -22 12 -25
2 -10 62 -127 91 -174 88 -146 244 -320 354 -396 19 -13 37 -27 40 -30 10 -12
126 -78 193 -110 72 -34 207 -82 207 -74 0 3 9 0 21 -6 22 -12 31 -15 99 -24
25 -4 71 -10 102 -14 107 -15 339 -5 433 20 22 6 45 11 50 13 53 12 82 23 160
60 107 52 223 136 320 233 69 68 77 78 123 136 l22 29 0 -221 0 -221 118 -1
c64 0 124 0 132 -1 8 0 49 0 90 0 41 0 82 1 90 0 44 0 139 1 170 2 19 0 89 1
155 2 l119 2 1 2093 c0 1851 -2 2093 -15 2096 -8 2 -58 4 -110 4 -53 0 -100 1
-105 2 -6 1 -14 1 -20 0 -24 -5 -195 -1 -204 4 -5 4 -12 2 -16 -3 -4 -7 -15
-7 -30 -1 -14 5 -25 6 -25 2 0 -8 -166 -6 -187 2 -7 3 -14 2 -17 -2z m-717
-1822 c30 -7 70 -19 90 -28 20 -9 41 -17 48 -18 28 -5 156 -100 206 -153 46
-48 130 -163 132 -181 0 -3 6 -15 13 -26 23 -42 64 -168 78 -238 5 -29 16
-147 16 -186 0 -54 -16 -230 -22 -237 -2 -2 -3 -6 -4 -10 -18 -75 -86 -244
-106 -263 -3 -3 -18 -25 -34 -50 -35 -54 -151 -169 -192 -190 -16 -8 -36 -20
-44 -27 -20 -16 -139 -61 -182 -69 -90 -16 -128 -20 -186 -17 -305 11 -561
203 -671 505 -44 120 -54 179 -55 333 -1 164 4 210 35 312 22 73 78 196 91
201 4 2 8 8 8 14 0 6 17 32 37 57 119 148 265 241 433 275 76 16 232 14 309
-4z"/>
<path d="M3808 16285 c0 0 -2 -87 -3 -192 l-2 -193 176 0 176 0 -2 182 c0 101
-1 188 -2 193 -1 8 -259 15 -343 10z"/>
<path d="M5410 16072 l-25 -3 0 -460 c0 -298 -3 -463 -10 -468 -5 -4 -99 -7
-209 -6 -149 1 -199 -2 -203 -11 -7 -18 -9 -194 -3 -194 3 0 6 -12 5 -27 l0
-28 208 0 c114 0 208 -2 208 -5 1 -3 3 -466 4 -1030 1 -564 5 -1036 9 -1050 3
-14 9 -38 12 -55 9 -51 55 -176 83 -225 73 -131 201 -241 341 -295 124 -47
230 -64 400 -61 85 2 169 6 185 10 111 25 252 74 263 90 9 15 10 256 0 256 -4
0 -19 -5 -35 -11 -15 -6 -29 -10 -31 -10 -1 1 -15 -5 -30 -12 -31 -16 -142
-48 -187 -54 -53 -7 -228 -7 -280 1 -67 9 -106 22 -193 63 -147 70 -226 189
-248 375 -7 53 -12 1969 -6 1998 3 13 65 15 508 15 330 0 508 3 512 10 4 5 7
64 7 130 l1 120 -512 0 c-506 0 -513 0 -516 20 -2 11 -3 221 -2 468 0 312 -3
447 -10 447 -90 3 -227 4 -246 2z"/>
<path d="M18758 15345 c-2 -2 -41 -6 -88 -9 -83 -6 -103 -8 -165 -22 -16 -4
-37 -8 -45 -9 -23 -2 -128 -34 -189 -56 -127 -47 -269 -125 -381 -211 -142
-109 -305 -299 -389 -453 -18 -33 -36 -64 -40 -70 -13 -17 -81 -193 -103 -263
-11 -37 -22 -74 -25 -82 -3 -8 -7 -22 -8 -30 -1 -8 -10 -62 -20 -120 -10 -58
-18 -156 -19 -217 -1 -62 -5 -113 -9 -113 -5 0 -5 -5 -2 -10 4 -6 8 -43 10
-82 2 -40 7 -89 10 -110 4 -21 8 -48 9 -61 2 -12 6 -35 10 -52 3 -16 9 -40 11
-52 10 -48 14 -61 44 -153 39 -120 124 -289 198 -394 81 -113 260 -289 368
-363 85 -57 182 -110 270 -148 22 -9 47 -20 55 -25 9 -4 31 -11 50 -15 19 -4
41 -12 48 -17 6 -6 12 -8 12 -4 0 3 12 1 27 -5 23 -9 73 -20 187 -44 122 -26
528 -25 640 2 12 2 30 6 41 8 35 5 168 43 225 63 68 24 231 102 248 118 6 7
21 16 32 19 11 3 20 10 20 15 0 5 10 12 22 16 12 3 27 12 33 18 7 6 27 22 45
36 63 47 172 152 240 230 l22 25 -50 45 c-27 25 -79 72 -117 105 -38 33 -79
69 -91 80 -12 11 -50 45 -84 75 -82 71 -80 70 -121 108 l-35 32 -25 -20 c-13
-12 -36 -32 -51 -46 -15 -13 -32 -24 -37 -24 -5 0 -11 -4 -13 -9 -5 -14 -140
-97 -209 -130 -139 -64 -247 -86 -424 -85 -309 2 -544 135 -667 378 -25 50
-77 195 -78 217 0 3 480 5 1066 5 860 -1 1068 1 1076 12 20 24 14 440 -7 547
-3 11 -7 38 -11 60 -3 22 -7 45 -8 50 -2 6 -7 28 -11 50 -12 55 -12 55 -14 58
-2 1 -4 12 -6 23 -12 59 -62 200 -105 291 -104 221 -242 395 -425 533 -127 97
-319 193 -450 226 -16 4 -34 8 -40 10 -5 2 -37 8 -70 13 -33 6 -71 13 -85 16
-14 3 -79 8 -145 11 -66 3 -128 7 -137 8 -9 2 -18 2 -20 1z m217 -725 c130
-30 260 -127 346 -257 47 -73 102 -201 113 -264 3 -19 10 -51 15 -71 6 -25 5
-38 -3 -41 -6 -2 -301 -3 -656 -3 -639 1 -645 1 -644 21 2 35 12 79 23 108 6
15 8 27 5 27 -4 0 -2 6 3 13 5 6 18 35 28 62 30 81 104 196 164 255 45 45 126
100 168 116 26 9 54 22 61 27 6 5 12 7 12 5 0 -2 26 1 58 8 66 14 234 11 307
-6z"/>
<path d="M22267 15343 c-1 -1 -34 -4 -72 -7 -39 -3 -83 -8 -100 -11 -16 -3
-43 -7 -60 -10 -28 -5 -44 -8 -93 -19 -42 -9 -178 -58 -239 -86 -80 -37 -228
-125 -263 -157 -13 -12 -28 -23 -32 -23 -14 0 -144 -124 -198 -190 -19 -23
-44 -52 -55 -64 -12 -11 -30 -36 -40 -54 -11 -17 -22 -32 -26 -32 -4 0 -9 -8
-13 -17 -3 -10 -15 -34 -27 -53 -39 -63 -89 -161 -89 -174 0 -7 -5 -17 -11
-23 -29 -29 -98 -272 -125 -438 -20 -129 -20 -392 2 -525 3 -19 7 -46 9 -60 7
-48 45 -189 71 -262 131 -364 404 -671 744 -835 103 -49 199 -86 255 -98 17
-4 28 -7 75 -21 48 -14 84 -21 140 -29 19 -3 64 -9 100 -14 65 -10 421 -8 437
2 4 3 34 8 65 11 31 3 63 8 70 11 7 2 24 7 38 9 45 9 65 14 95 26 17 6 30 10
30 9 0 -11 237 89 243 103 2 5 8 8 14 8 14 0 129 72 203 128 33 25 107 93 163
150 l104 105 -29 26 c-155 138 -193 173 -228 202 -22 19 -60 52 -84 74 -24 22
-49 45 -55 50 -6 6 -33 30 -60 53 -46 43 -48 43 -66 25 -9 -10 -26 -25 -36
-33 -77 -61 -103 -80 -113 -80 -6 0 -11 -4 -11 -9 0 -5 -9 -13 -20 -16 -11 -3
-26 -12 -32 -18 -20 -19 -136 -74 -203 -96 -134 -43 -323 -58 -468 -36 -199
29 -388 147 -484 300 -33 53 -96 185 -87 185 2 0 0 8 -5 18 -5 9 -12 33 -15
53 l-5 35 1057 -1 c581 0 1064 2 1072 6 12 6 17 28 19 86 7 162 1 356 -14 433
-3 14 -8 45 -11 70 -31 236 -132 506 -262 698 -79 117 -69 106 -180 217 -143
143 -333 261 -515 319 -75 25 -168 48 -202 52 -11 1 -30 5 -42 8 -40 9 -330
26 -336 19z m283 -738 c197 -71 332 -233 407 -490 7 -25 22 -101 23 -115 0
-13 -78 -15 -655 -15 -590 0 -655 1 -655 15 0 36 42 174 75 246 63 138 157
249 265 312 25 15 47 27 50 27 3 1 25 9 50 18 67 26 132 34 255 31 90 -2 124
-7 185 -29z"/>
<path d="M15150 15323 c-79 -15 -105 -20 -105 -23 0 -1 -8 -3 -17 -5 -57 -11
-239 -96 -268 -125 -3 -3 -32 -25 -65 -50 -68 -52 -187 -167 -229 -222 -16
-21 -32 -38 -36 -38 -4 0 -7 95 -6 210 0 116 -1 211 -4 211 -3 1 -198 2 -434
3 -343 1 -430 -2 -434 -12 -2 -7 -5 -908 -6 -2002 l-1 -1989 90 1 c50 0 95 -1
100 -2 6 -1 12 -2 15 0 16 6 110 4 110 -3 0 -5 5 -5 10 -2 9 6 143 10 165 5 6
-1 15 -1 20 0 31 6 125 4 125 -3 0 -5 5 -5 11 -1 7 4 61 6 120 6 96 -1 109 1
110 16 0 9 1 306 1 659 l1 642 67 -67 c36 -37 86 -84 110 -105 68 -60 243
-172 307 -197 32 -12 67 -26 78 -31 37 -16 115 -32 220 -46 61 -8 309 -8 350
0 17 3 50 9 75 12 214 29 496 166 646 313 13 12 28 22 34 22 5 0 10 3 10 8 0
4 17 25 38 47 135 144 247 328 319 525 30 80 70 222 78 280 2 14 7 41 10 60
25 161 25 514 -1 645 -2 11 -6 38 -9 59 -3 22 -11 60 -19 85 -7 25 -14 49 -15
54 0 4 -1 8 -2 10 0 1 -2 9 -4 18 -4 24 -44 138 -62 179 -150 340 -390 601
-678 735 -127 60 -294 112 -395 124 -81 10 -367 6 -430 -6z m188 -747 c172
-46 327 -157 420 -301 17 -27 39 -59 47 -70 8 -10 15 -27 15 -36 0 -10 4 -21
10 -24 11 -7 57 -151 66 -209 3 -21 8 -48 10 -60 5 -25 4 -239 -1 -281 -20
-153 -95 -332 -186 -439 -61 -72 -156 -156 -177 -156 -6 0 -12 -4 -14 -8 -4
-12 -126 -68 -168 -78 -48 -11 -50 -11 -52 -13 -7 -6 -70 -11 -138 -13 -151
-3 -254 27 -413 119 -39 22 -146 132 -185 190 -64 95 -126 236 -137 313 -2 14
-8 46 -13 72 -10 50 -9 279 1 338 9 50 20 95 29 120 3 8 14 38 24 65 47 134
157 281 275 367 45 33 149 84 192 94 17 4 37 9 42 11 78 24 259 24 353 -1z"/>
<path d="M11538 15325 c-2 -2 -26 -7 -54 -10 -62 -7 -77 -10 -134 -25 -25 -7
-49 -13 -55 -14 -149 -33 -336 -139 -459 -262 -123 -123 -215 -298 -246 -469
-16 -86 -20 -259 -8 -334 5 -31 11 -65 12 -76 3 -21 5 -27 38 -115 79 -206
277 -387 544 -496 82 -33 339 -121 374 -127 27 -5 223 -69 322 -104 184 -66
260 -138 260 -249 0 -79 -48 -148 -125 -182 -64 -29 -76 -32 -136 -39 -269
-31 -600 61 -921 255 -41 25 -81 52 -88 59 -7 7 -17 13 -22 13 -5 0 -16 8 -26
17 -16 16 -18 15 -41 -12 -13 -17 -29 -40 -36 -53 -12 -22 -114 -180 -239
-370 -37 -56 -68 -108 -70 -116 -2 -12 140 -126 157 -126 2 0 23 -13 47 -29
174 -117 493 -239 728 -280 36 -6 79 -13 95 -16 140 -25 454 -24 576 0 13 3
40 8 59 11 19 3 38 8 41 10 3 2 20 6 38 9 80 14 229 75 325 132 108 65 232
182 283 267 64 108 109 228 129 346 11 59 11 312 1 373 -8 48 -10 56 -43 137
-50 124 -180 273 -319 365 -147 98 -280 156 -620 270 -303 102 -425 158 -508
234 -73 67 -72 180 2 258 86 91 309 103 561 31 41 -12 79 -25 85 -30 5 -4 15
-8 23 -8 8 0 30 -7 50 -16 21 -8 51 -21 67 -28 17 -7 55 -25 85 -39 30 -14 62
-28 70 -31 8 -3 47 -24 87 -46 l72 -39 25 46 c14 25 26 49 26 53 0 5 3 10 8
12 4 2 21 30 37 63 17 33 32 62 35 65 3 3 39 66 80 140 111 203 121 222 118
225 -52 35 -72 47 -120 73 -110 61 -144 78 -203 101 -33 13 -64 28 -70 33 -5
4 -15 8 -21 8 -7 0 -25 5 -41 12 -15 6 -30 12 -33 13 -3 0 -37 11 -75 23 -39
12 -79 24 -90 26 -11 2 -40 9 -65 16 -25 7 -52 13 -60 14 -8 1 -35 5 -60 9
-25 4 -61 10 -80 13 -44 6 -386 15 -392 9z"/>
<path d="M8546 15203 c-2 -2 -25 -5 -52 -8 -74 -6 -123 -15 -184 -31 -30 -8
-60 -16 -67 -18 -7 -1 -16 -5 -19 -9 -4 -4 -15 -7 -24 -7 -23 0 -263 -120
-273 -136 -4 -8 -12 -14 -18 -14 -29 0 -256 -204 -326 -293 -28 -35 -134 -198
-140 -214 -3 -10 -12 -25 -18 -33 -21 -25 -102 -240 -125 -330 -25 -96 -23
-89 -40 -190 -20 -119 -17 -482 4 -541 3 -7 8 -33 10 -56 2 -22 6 -45 9 -50 4
-6 9 -24 12 -42 18 -104 130 -361 202 -465 111 -159 247 -296 386 -389 95 -63
197 -120 197 -109 0 4 4 2 8 -4 7 -12 225 -89 277 -98 17 -3 41 -8 55 -11 134
-29 419 -26 593 6 34 6 71 12 82 14 11 1 27 5 35 8 8 4 44 16 80 28 36 12 92
35 125 51 33 17 75 37 93 46 17 9 32 20 32 24 0 4 6 8 13 8 28 1 238 162 347
268 l75 73 -40 37 c-84 77 -149 132 -154 132 -3 0 -31 -24 -61 -53 -128 -123
-303 -244 -442 -306 -58 -26 -181 -63 -253 -76 -142 -25 -375 -23 -485 5 -19
5 -46 11 -60 14 -29 5 -102 31 -145 50 -16 8 -46 21 -66 29 -119 49 -311 217
-414 362 -47 65 -115 183 -120 205 -1 3 -9 23 -18 44 -22 49 -63 188 -72 241
-4 22 -9 49 -11 60 -11 64 -12 125 -1 125 7 1 553 1 1215 2 700 0 1205 4 1208
9 12 21 3 290 -13 379 -3 19 -7 46 -9 60 -6 58 -57 259 -75 292 -5 10 -9 22
-9 28 0 6 -18 49 -40 96 -22 47 -40 90 -40 95 0 5 -4 9 -8 9 -4 0 -13 12 -20
28 -17 40 -53 97 -63 100 -5 2 -9 10 -9 17 0 7 -3 15 -7 17 -5 2 -26 26 -47
53 -201 255 -508 422 -846 461 -57 6 -239 11 -244 7z m214 -268 c388 -41 699
-314 837 -735 18 -52 34 -107 37 -122 3 -16 9 -40 12 -55 12 -61 31 -199 27
-208 -2 -7 -367 -10 -1068 -10 l-1065 0 6 45 c15 126 25 175 60 285 125 391
416 686 764 776 67 17 80 19 140 25 30 4 56 7 57 8 4 4 130 -2 193 -9z"/>
<path d="M3841 15125 c-5 -7 -7 -2877 -2 -2918 1 -4 63 -6 139 -5 l137 3 0
198 c0 108 3 197 7 197 4 0 5 6 2 14 -8 21 -10 226 -2 226 4 0 5 6 2 14 -8 21
-10 706 -2 706 4 0 5 6 2 14 -8 21 -10 226 -2 226 4 0 5 6 2 14 -8 21 -10 706
-2 706 4 0 5 6 2 14 -8 21 -10 226 -2 226 4 0 5 6 2 14 -9 23 -10 226 -1 226
5 0 5 5 1 11 -4 7 -6 37 -5 68 l1 56 -136 0 c-79 0 -139 -4 -143 -10z"/>
</g>
</svg>
